HIERARCHY
ROOT Hips
{
	OFFSET	0.00	0.00	0.00
	CHANNELS 6 Xposition Yposition Zposition Zrotation Xrotation Yrotation
	JOINT LeftUpLeg
	{
		OFFSET	 0.126116	-0.065224	 0.014019
		CHANNELS 3 Zrotation Xrotation Yrotation
		JOINT LeftLeg
		{
			OFFSET	 0.000000	 0.569914	 0.000000
			CHANNELS 3 Zrotation Xrotation Yrotation
			JOINT LeftFoot
			{
				OFFSET	 0.000000	 0.544423	 0.000000
				CHANNELS 3 Zrotation Xrotation Yrotation
				JOINT LeftToeBase
				{
					OFFSET	 0.000000	 0.207117	 0.000000
					CHANNELS 3 Zrotation Xrotation Yrotation
					End Site
					{
						OFFSET	 0.000000	 0.207117	 0.000000
					}
				}
			}
		}
	}
	JOINT RightUpLeg
	{
		OFFSET	-0.124023	-0.065224	 0.008373
		CHANNELS 3 Zrotation Xrotation Yrotation
		JOINT RightLeg
		{
			OFFSET	 0.000000	 0.570047	 0.000000
			CHANNELS 3 Zrotation Xrotation Yrotation
			JOINT RightFoot
			{
				OFFSET	 0.000000	 0.544354	 0.000000
				CHANNELS 3 Zrotation Xrotation Yrotation
				JOINT RightToeBase
				{
					OFFSET	 0.000000	 0.207540	 0.000000
					CHANNELS 3 Zrotation Xrotation Yrotation
					End Site
					{
						OFFSET	 0.000000	 0.207540	 0.000000
					}
				}
			}
		}
	}
	JOINT Spine
	{
		OFFSET	 0.000184	 0.117403	 0.007763
		CHANNELS 3 Zrotation Xrotation Yrotation
		JOINT Spine1
		{
			OFFSET	 0.000000	 0.137269	 0.000000
			CHANNELS 3 Zrotation Xrotation Yrotation
			JOINT Spine2
			{
				OFFSET	 0.000000	 0.156879	 0.000000
				CHANNELS 3 Zrotation Xrotation Yrotation
				JOINT LeftShoulder
				{
					OFFSET	 0.080501	 0.160143	 0.002496
					CHANNELS 3 Zrotation Xrotation Yrotation
					JOINT LeftArm
					{
						OFFSET	 0.000000	 0.164363	 0.000000
						CHANNELS 3 Zrotation Xrotation Yrotation
						JOINT LeftForeArm
						{
							OFFSET	 0.000000	 0.364576	 0.000000
							CHANNELS 3 Zrotation Xrotation Yrotation
							JOINT LeftHand
							{
								OFFSET	 0.000000	 0.360812	 0.000000
								CHANNELS 3 Zrotation Xrotation Yrotation
								JOINT LeftHandIndex1
								{
									OFFSET	 0.000000	 0.086006	 0.000000
									CHANNELS 3 Zrotation Xrotation Yrotation
									JOINT LeftHandIndex2
									{
										OFFSET	 0.000000	 0.047237	 0.000000
										CHANNELS 3 Zrotation Xrotation Yrotation
										JOINT LeftHandIndex3
										{
											OFFSET	-0.004284	 0.038165	 0.000551
											CHANNELS 3 Zrotation Xrotation Yrotation
											End Site
											{
												OFFSET	-0.004284	 0.038165	 0.000551
											}
										}
									}
								}
							}
						}
					}
				}
				JOINT Neck
				{
					OFFSET	 0.000000	 0.176489	 0.000000
					CHANNELS 3 Zrotation Xrotation Yrotation
					JOINT Head
					{
						OFFSET	 0.000000	 0.077941	 0.001747
						CHANNELS 3 Zrotation Xrotation Yrotation
						End Site
						{
							OFFSET	 0.000000	 0.077941	 0.001747
						}
					}
				}
				JOINT RightShoulder
				{
					OFFSET	-0.080363	 0.159706	-0.000306
					CHANNELS 3 Zrotation Xrotation Yrotation
					JOINT RightArm
					{
						OFFSET	 0.000000	 0.164196	 0.000000
						CHANNELS 3 Zrotation Xrotation Yrotation
						JOINT RightForeArm
						{
							OFFSET	 0.000000	 0.365611	 0.000000
							CHANNELS 3 Zrotation Xrotation Yrotation
							JOINT RightHand
							{
								OFFSET	 0.000000	 0.360648	 0.000000
								CHANNELS 3 Zrotation Xrotation Yrotation
								JOINT RightHandIndex1
								{
									OFFSET	 0.000000	 0.069977	 0.000000
									CHANNELS 3 Zrotation Xrotation Yrotation
									JOINT RightHandIndex2
									{
										OFFSET	 0.000000	 0.052305	 0.000000
										CHANNELS 3 Zrotation Xrotation Yrotation
										JOINT RightHandIndex3
										{
											OFFSET	 0.009002	 0.042196	 0.000782
											CHANNELS 3 Zrotation Xrotation Yrotation
											End Site
											{
												OFFSET	 0.009002	 0.042196	 0.000782
											}
										}
									}
								}
							}
						}
					}
				}
			}
		}
	}
}
MOTION
Frames:    8
Frame Time: 0.03333334
-0.001137	 1.270104	-0.008661	 0.083317	 3.193312	 178.781400	 176.581200	 3.012980	 9.718914	 3.215923	-15.862780	 2.911799	-2.801825	 70.394270	 6.111494	 1.331492	 28.938720	-2.729976	-176.643100	 3.468524	-6.275778	-5.015646	-16.089210	-6.434684	 0.014512	 70.131420	-0.970589	-1.305360	 28.580650	 2.604644	-0.893215	 3.132360	-6.119619	-1.851433	 4.000479	-3.870597	-1.677658	-3.344772	 7.177318	-113.447100	 5.126356	 93.000110	 7.919817	 54.422330	 37.044190	 14.670540	-0.750849	 0.012762	-17.885060	-19.540540	-37.862650	-6.580301	 5.266122	 0.000000	 0.000000	 0.000000	 0.000000	 0.000000	 0.000000	 0.000000	 3.830363	-0.645100	-0.250262	 3.215160	 1.017596	 3.413558	 114.205700	-4.428123	-88.482680	-51.960560	 11.492340	 44.410870	-95.153660	-2.243951	-2.396900	-27.181770	-23.449940	-9.951115	-0.359781	 10.582440	 0.744568	 11.977790	 9.317307	-2.096065	-8.359142	 3.150335	 0.104224
-0.001115	 1.271035	-0.008715	 0.089351	 3.194644	 178.768600	 176.589200	 3.015160	 9.698910	 3.218351	-15.874110	 2.906666	-2.785001	 70.242390	 6.099532	 1.331492	 28.938720	-2.729976	-176.636500	 3.462698	-6.277796	-5.012711	-16.080280	-6.443399	-0.004461	 69.965480	-0.951484	-1.305364	 28.580670	 2.603643	-0.893953	 3.107863	-6.108479	-1.849546	 4.074036	-3.862852	-1.675167	-3.446703	 7.169490	-113.447100	 5.124234	 92.999660	 7.079061	 54.115800	 37.743710	 15.799510	-0.807181	 0.028179	-18.531850	-19.723210	-37.901840	-6.580301	 5.266122	 0.000000	 0.000000	 0.000000	 0.000000	 0.000000	 0.000000	 0.000000	 3.833815	-0.653018	-0.251337	 3.228565	 1.011227	 3.404736	 114.205100	-4.423902	-88.485730	-51.801800	 11.344920	 43.987320	-95.415310	-2.242990	-2.407091	-27.727680	-23.629940	-10.295630	-0.359781	 10.582420	 0.744568	 11.977790	 9.317287	-2.096060	-8.359142	 3.150325	 0.104225
-0.001082	 1.271978	-0.008780	 0.096655	 3.196103	 178.753400	 176.598900	 3.017688	 9.676201	 3.221169	-15.887300	 2.900425	-2.771805	 70.090200	 6.091177	 1.331492	 28.938720	-2.729976	-176.628400	 3.455541	-6.281100	-5.009046	-16.069150	-6.453842	-0.028344	 69.796480	-0.927254	-1.305369	 28.580700	 2.602444	-0.894853	 3.081968	-6.095273	-1.847359	 4.149750	-3.853299	-1.672868	-3.551788	 7.159533	-113.447100	 5.121694	 92.999080	 6.292646	 53.822910	 38.400330	 16.871330	-0.860398	 0.043771	-19.174790	-19.935590	-37.947700	-6.580301	 5.266122	 0.000000	 0.000000	 0.000000	 0.000000	 0.000000	 0.000000	 0.000000	 3.837953	-0.662513	-0.252626	 3.244534	 1.005681	 3.393782	 114.204300	-4.418879	-88.489370	-51.610650	 11.193380	 43.462350	-95.778080	-2.241578	-2.421291	-28.360160	-23.840190	-10.738840	-0.359780	 10.582390	 0.744568	 11.977790	 9.317262	-2.096055	-8.359142	 3.150311	 0.104226
-0.001038	 1.272929	-0.008855	 0.105197	 3.198068	 178.735900	 176.610400	 3.020126	 9.651043	 3.224389	-15.902380	 2.893147	-2.762253	 69.938200	 6.086356	 1.331492	 28.938720	-2.729976	-176.618500	 3.446799	-6.285236	-5.004816	-16.056320	-6.466045	-0.056783	 69.625330	-0.898361	-1.305374	 28.580730	 2.601043	-0.895960	 3.055920	-6.080001	-1.845090	 4.226005	-3.841902	-1.670644	-3.659365	 7.147412	-113.447200	 5.118711	 92.998440	 5.554509	 53.542920	 39.019200	 17.893900	-0.910861	 0.059573	-19.819410	-20.177690	-38.000120	-6.580301	 5.266122	 0.000000	 0.000000	 0.000000	 0.000000	 0.000000	 0.000000	 0.000000	 3.842788	-0.673606	-0.254130	 3.263104	 1.001035	 3.380687	 114.203500	-4.412991	-88.493630	-51.390560	 11.041280	 42.827520	-96.259810	-2.239655	-2.440182	-29.070460	-24.080860	-11.295940	-0.359779	 10.582360	 0.744568	 11.977790	 9.317234	-2.096050	-8.359141	 3.150295	 0.104228
-0.000982	 1.273863	-0.008939	 0.114749	 3.199882	 178.716300	 176.623400	 3.023213	 9.623407	 3.227948	-15.919050	 2.885042	-2.757193	 69.790740	 6.085758	 1.331492	 28.938720	-2.729976	-176.607200	 3.437124	-6.290727	-4.999967	-16.041610	-6.479633	-0.089047	 69.456470	-0.865634	-1.305380	 28.580760	 2.599482	-0.897185	 3.028704	-6.063482	-1.843456	 4.302366	-3.829383	-1.668267	-3.766735	 7.133492	-113.447200	 5.115416	 92.997720	 4.875276	 53.281450	 39.591290	 18.850180	-0.957857	 0.075120	-20.453990	-20.442140	-38.058810	-6.580301	 5.266122	 0.000000	 0.000000	 0.000000	 0.000000	 0.000000	 0.000000	 0.000000	 3.848172	-0.685961	-0.255805	 3.283709	 0.997445	 3.365923	 114.202500	-4.406410	-88.498380	-51.154140	 10.895100	 42.094590	-96.860400	-2.236944	-2.463596	-29.827800	-24.344380	-11.964190	-0.359778	 10.582330	 0.744568	 11.977790	 9.317200	-2.096043	-8.359140	 3.150278	 0.104230
-0.000911	 1.274810	-0.009037	 0.125589	 3.202214	 178.694000	 176.638400	 3.026140	 9.592885	 3.231950	-15.937730	 2.875887	-2.755801	 69.642890	 6.088622	 1.331492	 28.938720	-2.729976	-176.593800	 3.425502	-6.297359	-4.994450	-16.024830	-6.495110	-0.126510	 69.284380	-0.827789	-1.305387	 28.580800	 2.597709	-0.898725	 3.000787	-6.044765	-1.842244	 4.379375	-3.814884	-1.665804	-3.876976	 7.117307	-113.447300	 5.111674	 92.996900	 4.227111	 53.029210	 40.140130	 19.779280	-1.003201	 0.091030	-21.104510	-20.737670	-38.124700	-6.580301	 5.266122	 0.000000	 0.000000	 0.000000	 0.000000	 0.000000	 0.000000	 0.000000	 3.854289	-0.699996	-0.257706	 3.307047	 0.994713	 3.348879	 114.201400	-4.398983	-88.503750	-50.898800	 10.751000	 41.231150	-97.614750	-2.233227	-2.493002	-30.647010	-24.636650	-12.782060	-0.359777	 10.582290	 0.744568	 11.977790	 9.317163	-2.096035	-8.359139	 3.150259	 0.104231
-0.000834	 1.275649	-0.009136	 0.136167	 3.204413	 178.672300	 176.653400	 3.028852	 9.563590	 3.235743	-15.955450	 2.866920	-2.757844	 69.513080	 6.094166	 1.331492	 28.938720	-2.729976	-176.580400	 3.413928	-6.304343	-4.988912	-16.008010	-6.510203	-0.163672	 69.131030	-0.790434	-1.305394	 28.580840	 2.595979	-0.900227	 2.975280	-6.027099	-1.842277	 4.448043	-3.801063	-1.663203	-3.975770	 7.101205	-113.447400	 5.107996	 92.996070	 3.682458	 52.815280	 40.604350	 20.574540	-1.041769	 0.105248	-21.690970	-21.022220	-38.190480	-6.580301	 5.266122	 0.000000	 0.000000	 0.000000	 0.000000	 0.000000	 0.000000	 0.000000	 3.860255	-0.713690	-0.259559	 3.329767	 0.993096	 3.332092	 114.200400	-4.391688	-88.509040	-50.667700	 10.625300	 40.358220	-98.414520	-2.228850	-2.524197	-31.407020	-24.913690	-13.638340	-0.359775	 10.582250	 0.744568	 11.977790	 9.317127	-2.096028	-8.359139	 3.150239	 0.104233
-0.000730	 1.276603	-0.009262	 0.149249	 3.206879	 178.645000	 176.672200	 3.032322	 9.527396	 3.240457	-15.977500	 2.855790	-2.764229	 69.367500	 6.104167	 1.331492	 28.938720	-2.729976	-176.563300	 3.399545	-6.313852	-4.982034	-15.987150	-6.528947	-0.210563	 68.956090	-0.743573	-1.305402	 28.580890	 2.593833	-0.902194	 2.945623	-6.005215	-1.843768	 4.525322	-3.783665	-1.659624	-4.089067	 7.080947	-113.447400	 5.103447	 92.995090	 3.095789	 52.583930	 41.107790	 21.447870	-1.083948	 0.121446	-22.370330	-21.371320	-38.272450	-6.580301	 5.266122	 0.000000	 0.000000	 0.000000	 0.000000	 0.000000	 0.000000	 0.000000	 3.867660	-0.730686	-0.261858	 3.357913	 0.992161	 3.311078	 114.199000	-4.382655	-88.515590	-50.408500	 10.481690	 39.235250	-99.481610	-2.222305	-2.565592	-32.299560	-25.242720	-14.778010	-0.359774	 10.582210	 0.744568	 11.977790	 9.317082	-2.096019	-8.359138	 3.150216	 0.104235
